<?xml version="1.0" standalone="no"?>
<!DOCTYPE svg PUBLIC "-//W3C//DTD SVG 20010904//EN"
 "http://www.w3.org/TR/2001/REC-SVG-20010904/DTD/svg10.dtd">
<svg version="1.0" xmlns="http://www.w3.org/2000/svg"
 width="1024.000000pt" height="1024.000000pt" viewBox="0 0 1024.000000 1024.000000"
 preserveAspectRatio="xMidYMid meet">

<g transform="translate(0.000000,1024.000000) scale(0.100000,-0.100000)"
fill="#000000" stroke="none">
<path d="M3020 8549 c-154 -16 -354 -50 -393 -66 -61 -26 -67 -49 -67 -238 l0
-165 -156 0 c-170 0 -196 -7 -227 -60 -14 -24 -17 -183 -23 -1546 -5 -1134 -4
-1530 5 -1561 14 -49 55 -88 106 -97 22 -5 86 2 173 18 287 52 370 60 682 60
250 1 319 -3 455 -21 286 -40 516 -92 758 -173 186 -63 274 -99 517 -214 l195
-91 80 1 c80 0 80 0 259 88 320 157 572 246 906 321 513 115 946 123 1494 29
86 -15 163 -23 182 -19 41 7 87 45 103 82 8 21 11 428 9 1563 -3 1424 -4 1537
-20 1559 -39 55 -60 61 -230 61 l-158 0 0 173 c0 222 -1 225 -147 252 -243 45
-583 65 -807 46 -542 -46 -1062 -246 -1499 -578 l-98 -74 -68 54 c-268 217
-685 420 -1051 513 -318 81 -689 112 -980 83z m511 -269 c470 -47 938 -223
1288 -485 146 -110 168 -134 176 -198 10 -75 -2 -2687 -12 -2688 -4 0 -33 20
-63 44 -169 137 -477 303 -725 392 -366 132 -709 183 -1136 171 l-227 -7 -5
23 c-8 32 -7 2083 1 2428 l7 285 25 12 c59 28 474 42 671 23z m3787 -13 c41
-7 78 -20 83 -28 5 -8 9 -584 9 -1373 l0 -1358 -242 7 c-248 7 -373 1 -588
-31 -458 -67 -943 -266 -1244 -511 -32 -26 -67 -54 -77 -62 -19 -13 -19 21
-19 1335 0 871 4 1362 10 1385 13 45 96 117 264 230 317 213 718 359 1141 415
126 16 557 11 663 -9z"/>
<path d="M6212 7764 c-20 -13 -22 -24 -22 -97 0 -45 -3 -105 -6 -134 -6 -44
-11 -53 -34 -63 -15 -6 -51 -36 -80 -67 -67 -70 -148 -109 -255 -123 -81 -10
-115 -30 -115 -66 0 -30 69 -86 160 -132 l95 -48 3 -44 c2 -25 1 -72 -3 -106
-5 -53 -9 -61 -33 -71 -15 -6 -64 -28 -110 -48 -49 -22 -116 -42 -164 -50 -81
-13 -108 -29 -108 -62 0 -56 94 -131 225 -178 l75 -28 0 -178 c0 -99 -3 -179
-7 -179 -5 0 -43 -2 -85 -3 -46 -1 -83 -8 -90 -15 -8 -8 -14 -46 -17 -92 l-3
-80 -57 0 c-31 0 -62 -4 -70 -9 -19 -12 -27 -111 -12 -140 l12 -21 748 0 c848
0 776 -8 775 86 0 71 -13 84 -84 84 -66 0 -70 5 -70 102 0 77 -15 91 -85 83
-29 -4 -67 -4 -84 0 l-31 7 0 184 c0 168 1 184 18 184 26 1 146 54 203 91 100
64 107 159 11 159 -62 0 -159 28 -247 70 -46 22 -89 40 -94 40 -7 0 -11 38
-11 108 l0 107 92 45 c101 49 168 105 168 138 0 39 -34 62 -90 62 -104 0 -246
68 -293 139 -17 25 -39 43 -62 51 l-35 12 0 119 c0 115 -8 154 -34 171 -19 13
-71 9 -94 -8z m188 -834 l0 -100 -145 0 -145 0 0 100 0 100 145 0 145 0 0
-100z m100 -660 l0 -189 -242 2 -243 2 -3 175 c-1 96 0 180 2 187 4 10 59 13
246 13 l240 0 0 -190z"/>
<path d="M3642 3998 c-8 -8 -12 -47 -12 -109 0 -137 9 -131 -205 -127 l-173 3
-48 46 c-199 186 -529 217 -776 72 -90 -52 -170 -137 -212 -225 -42 -89 -56
-155 -56 -256 1 -332 254 -571 606 -572 145 0 280 47 388 135 l56 45 210 0
210 0 0 -118 c0 -78 4 -122 12 -130 8 -8 59 -12 163 -12 104 0 155 4 163 12 9
9 12 159 12 614 0 534 -2 604 -16 618 -13 13 -42 16 -163 16 -101 0 -151 -4
-159 -12z m-750 -330 c54 -23 119 -89 144 -145 10 -23 17 -65 18 -108 0 -59
-4 -78 -29 -123 -49 -90 -128 -141 -231 -150 -270 -21 -411 308 -209 486 26
23 64 46 84 51 20 5 45 12 56 15 34 8 117 -4 167 -26z m736 -275 l-3 -118
-124 -3 c-68 -1 -127 1 -131 5 -3 4 -4 59 -2 121 l4 112 129 0 130 0 -3 -117z"/>
<path d="M5686 3997 c-17 -12 -18 -71 -18 -1050 -1 -824 2 -1039 12 -1052 10
-12 39 -15 155 -15 125 0 144 2 158 18 15 17 17 70 17 559 l0 541 35 6 c19 4
82 6 139 4 75 -1 109 2 120 11 13 11 16 36 16 135 0 82 -4 126 -12 134 -8 8
-57 12 -155 12 l-143 0 0 339 c0 295 -2 342 -16 355 -21 21 -280 23 -308 3z"/>
<path d="M4777 3912 c-15 -16 -17 -50 -17 -268 0 -275 -9 -373 -45 -511 -57
-217 -176 -382 -411 -569 l-39 -32 19 -36 c29 -55 157 -186 183 -186 49 0 247
180 335 305 27 38 68 105 90 147 23 43 44 78 47 78 3 0 24 -33 46 -72 72 -128
179 -258 297 -359 42 -36 78 -59 92 -59 17 0 47 24 101 82 42 44 84 92 93 106
16 25 16 26 -28 61 -155 124 -258 247 -325 386 -85 174 -105 304 -105 679 0
232 -1 246 -19 256 -11 5 -82 10 -159 10 -122 0 -141 -2 -155 -18z"/>
<path d="M6592 3908 c-8 -8 -12 -50 -12 -123 0 -73 4 -115 12 -123 9 -9 146
-12 555 -12 l543 0 0 -105 0 -105 -543 0 c-409 0 -546 -3 -555 -12 -17 -17
-17 -699 0 -716 9 -9 86 -12 285 -12 l273 0 0 -140 0 -140 -384 0 c-326 0
-385 -2 -396 -15 -17 -21 -26 -205 -11 -233 l12 -22 924 0 c641 0 926 3 930
11 4 5 9 55 12 109 5 82 3 104 -11 125 l-16 25 -365 0 -365 0 0 140 0 140 284
0 c245 0 287 2 300 16 12 12 16 38 16 114 0 54 -3 105 -6 114 -6 14 -66 16
-585 16 l-580 0 3 108 3 107 545 3 c299 1 547 6 551 10 10 9 15 705 5 720 -11
17 -1407 17 -1424 0z"/>
<path d="M2462 2648 c-8 -8 -12 -51 -12 -128 0 -77 4 -120 12 -128 9 -9 154
-12 591 -12 l578 0 -3 -233 c-2 -187 0 -237 11 -250 11 -14 35 -17 158 -17 80
0 153 5 164 10 18 10 19 25 19 378 0 273 -3 371 -12 380 -17 17 -1489 17
-1506 0z"/>
</g>
</svg>
